<svg width="22" height="23" viewBox="0 0 22 23" fill="none" xmlns="http://www.w3.org/2000/svg">
<path fill-rule="evenodd" clip-rule="evenodd" d="M10.9999 0C11.6075 0 12.0999 0.490359 12.0999 1.09524V5.47618H13.1999C13.2742 5.47618 13.3473 5.47616 13.4195 5.47614C15.2554 5.47565 16.4427 5.47535 17.4394 5.79781C19.4488 6.44784 21.0241 8.01633 21.6769 10.0169C22.0007 11.0093 22.0004 12.1915 22 14.0195C22 14.0913 21.9999 14.1641 21.9999 14.2381C21.9999 14.312 22 14.3848 22 14.4567C22.0004 16.2846 22.0007 17.4668 21.6769 18.4592C21.0241 20.4598 19.4488 22.0283 17.4394 22.6783C16.4427 23.0008 15.2554 23.0005 13.4195 23C13.3473 23 13.2742 23 13.1999 23H8.80001C8.72581 23 8.65264 23 8.58047 23C6.74459 23.0005 5.55728 23.0008 4.56052 22.6783C2.55126 22.0283 0.975949 20.4598 0.323104 18.4592C-0.000766188 17.4668 -0.000447315 16.2846 3.66812e-05 14.4567C5.8681e-05 14.3848 8.07406e-05 14.312 8.07406e-05 14.2381C8.07406e-05 14.1641 5.8681e-05 14.0913 3.66812e-05 14.0195C-0.000447315 12.1915 -0.000766188 11.0093 0.323104 10.0169C0.975949 8.01633 2.55126 6.44784 4.56052 5.79781C5.55728 5.47535 6.7446 5.47565 8.58049 5.47614C8.65265 5.47616 8.72582 5.47618 8.80001 5.47618H9.89995V1.09524C9.89995 0.490359 10.3925 0 10.9999 0ZM8.80001 7.66665C6.667 7.66665 5.86137 7.68017 5.24036 7.88107C3.90085 8.31443 2.85064 9.36008 2.41541 10.6938C2.21363 11.3121 2.20006 12.1143 2.20006 14.2381C2.20006 16.3618 2.21363 17.164 2.41541 17.7824C2.85064 19.116 3.90085 20.1618 5.24036 20.595C5.86137 20.796 6.667 20.8095 8.80001 20.8095H13.1999C15.333 20.8095 16.1387 20.796 16.7596 20.595C18.0992 20.1618 19.1493 19.116 19.5846 17.7824C19.7863 17.164 19.7999 16.3618 19.7999 14.2381C19.7999 12.1143 19.7863 11.3121 19.5846 10.6938C19.1493 9.36008 18.0992 8.31443 16.7596 7.88107C16.1387 7.68017 15.333 7.66665 13.1999 7.66665H8.80001ZM5.50004 13.1428C5.50004 11.933 6.485 10.9524 7.70002 10.9524C8.91502 10.9524 9.89995 11.933 9.89995 13.1428C9.89995 14.3526 8.91502 15.3333 7.70002 15.3333C6.485 15.3333 5.50004 14.3526 5.50004 13.1428ZM12.0999 13.1428C12.0999 11.933 13.085 10.9524 14.2999 10.9524C15.515 10.9524 16.4999 11.933 16.4999 13.1428C16.4999 14.3526 15.515 15.3333 14.2999 15.3333C13.085 15.3333 12.0999 14.3526 12.0999 13.1428Z" fill="#FDCF48"/>
</svg>
