<svg width="23" height="26" viewBox="0 0 23 26" fill="none" xmlns="http://www.w3.org/2000/svg">
<path d="M22.0452 16.4029L12.5126 8.53178C12.091 8.18308 11.5772 7.9642 11.0336 7.90168C10.4901 7.83916 9.94003 7.93568 9.45022 8.17954C8.96042 8.4234 8.55188 8.80412 8.27415 9.27555C7.99642 9.74697 7.86142 10.2888 7.88553 10.8355L8.48312 23.1485C8.50527 23.679 8.69226 24.1894 9.01806 24.6086C9.34386 25.0279 9.79226 25.3351 10.3008 25.4876C10.5534 25.5664 10.8164 25.6067 11.081 25.6072C11.4796 25.6067 11.8726 25.5133 12.2287 25.3343C12.5848 25.1553 12.8943 24.8957 13.1325 24.5761L15.1959 21.8456C15.404 21.5719 15.6725 21.35 15.9805 21.1971C16.2885 21.0442 16.6277 20.9646 16.9716 20.9643H20.3956C20.9272 20.9661 21.4464 20.8035 21.882 20.4988C22.3176 20.194 22.6484 19.7621 22.829 19.2621C23.0096 18.7621 23.0312 18.2185 22.8909 17.7057C22.7506 17.1929 22.4552 16.736 22.0452 16.3977V16.4029ZM20.9774 18.5937C20.937 18.7149 20.8586 18.8199 20.7538 18.893C20.6489 18.9662 20.5233 19.0035 20.3956 18.9995H16.9716C16.3231 19.0007 15.6837 19.1515 15.1031 19.4401C14.5225 19.7288 14.0162 20.1474 13.6237 20.6636L11.5604 23.3941C11.4855 23.4984 11.379 23.5757 11.2567 23.6148C11.1344 23.6538 11.0028 23.6524 10.8814 23.6108C10.7598 23.577 10.6522 23.505 10.5747 23.4055C10.4971 23.3059 10.4536 23.184 10.4506 23.0579L9.85298 10.7448C9.84367 10.5803 9.88321 10.4167 9.96664 10.2746C10.0501 10.1326 10.1737 10.0183 10.3219 9.9463C10.471 9.86964 10.6394 9.83871 10.806 9.8574C10.9726 9.8761 11.1299 9.94357 11.2583 10.0514L20.7909 17.9278C20.8891 18.0042 20.9602 18.1101 20.9938 18.23C21.0274 18.3499 21.0216 18.4773 20.9774 18.5937ZM7.88159 3.61182V0.985042C7.88159 0.723793 7.98537 0.473243 8.1701 0.288512C8.35483 0.103781 8.60538 0 8.86663 0C9.12788 0 9.37843 0.103781 9.56316 0.288512C9.74789 0.473243 9.85167 0.723793 9.85167 0.985042V3.61182C9.85167 3.87307 9.74789 4.12362 9.56316 4.30835C9.37843 4.49308 9.12788 4.59686 8.86663 4.59686C8.60538 4.59686 8.35483 4.49308 8.1701 4.30835C7.98537 4.12362 7.88159 3.87307 7.88159 3.61182ZM5.45838 6.27012C5.37294 6.42351 5.24796 6.55119 5.09643 6.63989C4.9449 6.72859 4.77238 6.77506 4.5968 6.77446C4.42876 6.77281 4.26403 6.72755 4.11873 6.64312L1.49195 5.17738C1.3761 5.11599 1.27368 5.03209 1.19068 4.93061C1.10768 4.82912 1.04578 4.71208 1.00859 4.58636C0.971413 4.46064 0.959703 4.32876 0.974151 4.19845C0.988598 4.06814 1.02891 3.94203 1.09273 3.82751C1.15655 3.71299 1.24259 3.61235 1.3458 3.53151C1.44902 3.45067 1.56733 3.39125 1.69381 3.35672C1.82029 3.3222 1.95239 3.31327 2.08236 3.33047C2.21233 3.34766 2.33757 3.39062 2.45072 3.45684L5.0775 4.92521C5.19114 4.98818 5.2912 5.07301 5.37192 5.17482C5.45264 5.27663 5.51242 5.3934 5.54783 5.5184C5.58323 5.64341 5.59355 5.77418 5.5782 5.9032C5.56285 6.03221 5.52213 6.15691 5.45838 6.27012ZM4.49435 9.73878C4.61104 9.97252 4.6301 10.243 4.54734 10.4908C4.46458 10.7386 4.28678 10.9434 4.05306 11.0601L1.42628 12.3734C1.28979 12.4421 1.13906 12.4776 0.986291 12.4772C0.764239 12.4775 0.548606 12.4027 0.374373 12.2651C0.20014 12.1274 0.0775304 11.9349 0.0264343 11.7188C-0.0246617 11.5027 -0.00124615 11.2757 0.0928822 11.0746C0.187011 10.8735 0.346329 10.7101 0.544992 10.6109L3.17177 9.29749C3.28757 9.2395 3.41366 9.20493 3.54283 9.19573C3.67201 9.18653 3.80173 9.2029 3.92457 9.24388C4.04741 9.28487 4.16097 9.34968 4.25874 9.4346C4.35651 9.51952 4.43657 9.62289 4.49435 9.73878ZM13.2389 5.3652C13.1222 5.13146 13.1032 4.86095 13.1859 4.61317C13.2687 4.36539 13.4465 4.16062 13.6802 4.04393L16.307 2.73054C16.5404 2.61625 16.8096 2.59886 17.0558 2.68215C17.302 2.76545 17.5053 2.94269 17.6214 3.17524C17.7375 3.40779 17.757 3.67681 17.6756 3.92366C17.5942 4.17052 17.4186 4.3752 17.1869 4.49311L14.5602 5.8065C14.4237 5.87514 14.273 5.91068 14.1202 5.91025C13.9372 5.90995 13.7579 5.85882 13.6023 5.76258C13.4467 5.66634 13.3209 5.52876 13.2389 5.3652Z" fill="#FDCF48"/>
</svg>
