<svg width="16" height="16" viewBox="0 0 16 16" fill="none" xmlns="http://www.w3.org/2000/svg">
<mask id="mask0_1_275" style="mask-type:luminance" maskUnits="userSpaceOnUse" x="0" y="0" width="16" height="16">
<path d="M0 0H16V16H0V0Z" fill="white"/>
</mask>
<g mask="url(#mask0_1_275)">
<path d="M10 0.666687H2.66667C1.93334 0.666687 1.33334 1.26669 1.33334 2.00002V10.6667C1.33334 11.0334 1.63334 11.3334 2 11.3334C2.36667 11.3334 2.66667 11.0334 2.66667 10.6667V2.66669C2.66667 2.30002 2.96667 2.00002 3.33334 2.00002H10C10.3667 2.00002 10.6667 1.70002 10.6667 1.33335C10.6667 0.966687 10.3667 0.666687 10 0.666687ZM12.6667 3.33335H5.33334C4.6 3.33335 4 3.93335 4 4.66669V14C4 14.7334 4.6 15.3334 5.33334 15.3334H12.6667C13.4 15.3334 14 14.7334 14 14V4.66669C14 3.93335 13.4 3.33335 12.6667 3.33335ZM12 14H6C5.63334 14 5.33334 13.7 5.33334 13.3334V5.33335C5.33334 4.96669 5.63334 4.66669 6 4.66669H12C12.3667 4.66669 12.6667 4.96669 12.6667 5.33335V13.3334C12.6667 13.7 12.3667 14 12 14Z" fill="#1D1D1D"/>
</g>
</svg>
