<svg width="25" height="25" viewBox="0 0 25 25" fill="none" xmlns="http://www.w3.org/2000/svg">
<path d="M16.9635 9.33937L13.7581 12.5001L16.9635 15.6608C17.0527 15.7444 17.1238 15.8453 17.1725 15.9574C17.2211 16.0695 17.2462 16.1904 17.2462 16.3126C17.2462 16.4348 17.2211 16.5557 17.1725 16.6679C17.1238 16.78 17.0527 16.8809 16.9635 16.9644C16.8801 17.0472 16.7811 17.1126 16.6724 17.1571C16.5636 17.2015 16.4471 17.224 16.3296 17.2234C16.0954 17.2224 15.8709 17.1294 15.7046 16.9644L12.4992 13.759L9.33846 16.9644C9.17215 17.1294 8.94769 17.2224 8.71345 17.2234C8.59595 17.224 8.47946 17.2015 8.37068 17.1571C8.26189 17.1126 8.16295 17.0472 8.07952 16.9644C7.91322 16.7971 7.81988 16.5708 7.81988 16.335C7.81988 16.0991 7.91322 15.8728 8.07952 15.7055L11.2403 12.5001L8.07952 9.33937C7.93325 9.16856 7.85681 8.94885 7.86549 8.72414C7.87417 8.49942 7.96733 8.28626 8.12634 8.12725C8.28535 7.96823 8.49852 7.87508 8.72323 7.8664C8.94794 7.85772 9.16765 7.93415 9.33846 8.08043L12.4992 11.2412L15.6599 8.08043C15.7426 7.99483 15.8413 7.92636 15.9504 7.87891C16.0596 7.83147 16.177 7.80598 16.2959 7.80391C16.4149 7.80184 16.5331 7.82322 16.6439 7.86683C16.7546 7.91045 16.8556 7.97544 16.9412 8.05811C17.0268 8.14077 17.0953 8.23948 17.1427 8.34861C17.1902 8.45774 17.2156 8.57514 17.2177 8.69411C17.2198 8.81309 17.1984 8.93131 17.1548 9.04202C17.1112 9.15273 17.0462 9.25377 16.9635 9.33937ZM21.3386 21.3395C19.5903 23.0875 17.363 24.2779 14.9383 24.7601C12.5135 25.2423 10.0002 24.9947 7.71623 24.0486C5.4322 23.1024 3.48003 21.5003 2.10656 19.4447C0.733086 17.3891 0 14.9723 0 12.5001C0 10.0279 0.733086 7.61116 2.10656 5.55555C3.48003 3.49995 5.4322 1.89778 7.71623 0.951641C10.0002 0.0055007 12.5135 -0.242118 14.9383 0.240098C17.363 0.722314 19.5903 1.91271 21.3386 3.66075C22.4994 4.82151 23.4203 6.19957 24.0486 7.71623C24.6768 9.2329 25.0002 10.8585 25.0002 12.5001C25.0002 14.1418 24.6768 15.7673 24.0486 17.284C23.4203 18.8006 22.4994 20.1787 21.3386 21.3395ZM20.0796 4.91969C18.5797 3.42498 16.6705 2.40823 14.5932 1.99782C12.5158 1.58742 10.3634 1.80177 8.40777 2.61381C6.45215 3.42585 4.78098 4.79915 3.60532 6.56032C2.42965 8.32148 1.8022 10.3915 1.8022 12.509C1.8022 14.6266 2.42965 16.6966 3.60532 18.4578C4.78098 20.2189 6.45215 21.5922 8.40777 22.4043C10.3634 23.2163 12.5158 23.4306 14.5932 23.0202C16.6705 22.6098 18.5797 21.5931 20.0796 20.0984C21.0785 19.103 21.871 17.9202 22.4118 16.6178C22.9526 15.3155 23.2309 13.9192 23.2309 12.509C23.2309 11.0989 22.9526 9.70258 22.4118 8.40023C21.871 7.09788 21.0785 5.91509 20.0796 4.91969Z" fill="#6D6D6D"/>
</svg>
