<svg width="24" height="24" viewBox="0 0 24 24" fill="none" xmlns="http://www.w3.org/2000/svg">
<path d="M11.0872 17.9336L11.5436 13.8257H7.4357L12.9129 6.06641L12.4564 10.1743H16.5643L11.0872 17.9336Z" stroke="#FDCF48" stroke-width="1.36929" stroke-miterlimit="10"/>
<path d="M22.9866 19.7003H19.7915V16.5052" stroke="#FDCF48" stroke-width="1.36929" stroke-miterlimit="10"/>
<path d="M1.01343 4.29968H4.20845V7.4947" stroke="#FDCF48" stroke-width="1.36929" stroke-miterlimit="10"/>
<path d="M19.7916 19.7003C21.7739 17.7179 23 14.9793 23 11.9544C23 5.90445 18.0956 1 12.0457 1C10.5603 1 9.14476 1.29705 7.85315 1.83267" stroke="#FDCF48" stroke-width="1.36929" stroke-miterlimit="10"/>
<path d="M16.1469 22.1673C14.8553 22.7029 13.4397 23 11.9544 23C5.90445 23 1 18.0955 1 12.0456C1 9.02064 2.22611 6.28206 4.20844 4.29968" stroke="#FDCF48" stroke-width="1.36929" stroke-miterlimit="10"/>
</svg>
