<svg width="18" height="16" viewBox="0 0 18 16" fill="none" xmlns="http://www.w3.org/2000/svg">
<path d="M2.40009 4C2.40009 1.79086 4.19095 0 6.40009 0C8.60921 0 10.4001 1.79086 10.4001 4C10.4001 6.20914 8.60921 8 6.40009 8C4.19095 8 2.40009 6.20914 2.40009 4Z" fill="#777777"/>
<path d="M15.2001 4.8C15.2001 4.35818 14.8419 4 14.4001 4C13.9582 4 13.6001 4.35818 13.6001 4.8V6.4H12.0001C11.5582 6.4 11.2001 6.75816 11.2001 7.2C11.2001 7.64184 11.5582 8 12.0001 8H13.6001V9.6C13.6001 10.0418 13.9582 10.4 14.4001 10.4C14.8419 10.4 15.2001 10.0418 15.2001 9.6V8H16.8001C17.2419 8 17.6001 7.64184 17.6001 7.2C17.6001 6.75816 17.2419 6.4 16.8001 6.4H15.2001V4.8Z" fill="#777777"/>
<path d="M4 9.59998C2.93914 9.59998 1.92172 10.0214 1.17158 10.7716C0.421424 11.5217 0 12.5391 0 13.6V15.2C0 15.6418 0.358176 16 0.8 16H12C12.4418 16 12.8 15.6418 12.8 15.2V13.6C12.8 12.5391 12.3786 11.5217 11.6284 10.7716C10.8783 10.0214 9.86088 9.59998 8.8 9.59998H4Z" fill="#777777"/>
</svg>
