<svg width="20" height="20" viewBox="0 0 20 20" fill="none" xmlns="http://www.w3.org/2000/svg">
<path d="M18.7343 9.99099H1.24895C0.560364 9.99099 0 9.43062 0 8.74203V5.41149C0 4.7229 0.560364 4.16254 1.24895 4.16254H18.7343C19.4229 4.16254 19.9833 4.7229 19.9833 5.41149V8.74203C19.9833 9.43062 19.4229 9.99099 18.7343 9.99099ZM1.24895 4.99517C1.01998 4.99517 0.832636 5.18168 0.832636 5.41149V8.74203C0.832636 8.97184 1.01998 9.15835 1.24895 9.15835H18.7343C18.9633 9.15835 19.1506 8.97184 19.1506 8.74203V5.41149C19.1506 5.18168 18.9633 4.99517 18.7343 4.99517H1.24895Z" fill="#8A8A8A"/>
<path d="M16.2362 19.9827H3.74669C2.59848 19.9827 1.6651 19.0484 1.6651 17.9011V9.5747C1.6651 9.3449 1.85161 9.15839 2.08142 9.15839C2.31123 9.15839 2.49774 9.3449 2.49774 9.5747V17.9011C2.49774 18.5897 3.0581 19.15 3.74669 19.15H16.2362C16.9248 19.15 17.4852 18.5897 17.4852 17.9011V9.5747C17.4852 9.3449 17.6717 9.15839 17.9015 9.15839C18.1313 9.15839 18.3178 9.3449 18.3178 9.5747V17.9011C18.3178 19.0484 17.3844 19.9827 16.2362 19.9827Z" fill="#8A8A8A"/>
<path d="M9.99188 19.9827C9.76207 19.9827 9.57556 19.7961 9.57556 19.5663V9.5747C9.57556 9.3449 9.76207 9.15839 9.99188 9.15839C10.2217 9.15839 10.4082 9.3449 10.4082 9.5747V19.5663C10.4082 19.7961 10.2217 19.9827 9.99188 19.9827Z" fill="#8A8A8A"/>
<path d="M9.99173 4.99519C9.96175 4.99519 9.93178 4.99186 9.9018 4.9852C9.37724 4.86863 6.72363 4.25331 6.02255 3.55223C5.62872 3.16006 5.41223 2.63717 5.41223 2.08096C5.41223 1.52476 5.62872 1.00187 6.02172 0.608865C6.83354 -0.202955 8.1541 -0.202955 8.96509 0.608865C9.66617 1.30911 10.2815 3.96355 10.3981 4.48895C10.4289 4.628 10.3864 4.77288 10.2856 4.87279C10.2074 4.95189 10.1008 4.99519 9.99173 4.99519ZM7.49382 0.832844C7.17409 0.832844 6.85352 0.954409 6.61039 1.19754C6.37476 1.43401 6.24487 1.74708 6.24487 2.08096C6.24487 2.41485 6.37476 2.72792 6.61039 2.96439C6.93429 3.28829 8.28816 3.72542 9.42887 4.01684C9.13661 2.87613 8.70031 1.52227 8.37642 1.19837C8.13412 0.954409 7.81355 0.832844 7.49382 0.832844Z" fill="#8A8A8A"/>
<path d="M9.99173 4.99521C9.88265 4.99521 9.77607 4.95192 9.69697 4.87365C9.59622 4.7729 9.55376 4.62802 9.58457 4.4898C9.70113 3.96441 10.3165 1.3108 11.0175 0.60972C11.8294 -0.202933 13.1499 -0.201268 13.9609 0.60972C14.3547 1.00189 14.5712 1.52479 14.5712 2.08099C14.5712 2.63719 14.3547 3.16008 13.9617 3.55309C13.2607 4.25417 10.607 4.86948 10.0825 4.98605C10.0517 4.99188 10.0217 4.99521 9.99173 4.99521ZM12.4896 0.832866C12.1699 0.832866 11.8493 0.954431 11.6062 1.19756C11.2823 1.52146 10.846 2.87532 10.5538 4.01603C11.6945 3.72461 13.0483 3.28748 13.3722 2.96358C13.6087 2.72795 13.7386 2.41487 13.7386 2.08099C13.7386 1.7471 13.6087 1.43403 13.3731 1.19756C13.1299 0.954431 12.8094 0.832866 12.4896 0.832866Z" fill="#8A8A8A"/>
</svg>
