<svg width="16" height="29" viewBox="0 0 16 29" fill="none" xmlns="http://www.w3.org/2000/svg">
<path d="M14.3333 3.37884H12.6537V0.839844C12.6537 0.375962 12.2777 0 11.8138 0H3.35938C2.89549 0 2.51953 0.375962 2.51953 0.839844V3.37884H0.839844C0.375962 3.37884 0 3.7548 0 4.21869V27.8268C0 28.2907 0.375962 28.6667 0.839844 28.6667H14.3333C14.7972 28.6667 15.1732 28.2907 15.1732 27.8268V4.21869C15.1732 3.7548 14.7972 3.37884 14.3333 3.37884ZM4.19922 1.67969H10.974V3.36944H4.19922V1.67969ZM13.4935 26.987H1.67969V5.05853H13.4935V26.987Z" fill="#FDCF48"/>
<path d="M4.13616 18.3016H4.14601L5.9473 18.2806L5.98404 24.4725C5.98645 24.8699 6.26727 25.2113 6.65679 25.2905C6.71278 25.3019 6.76877 25.3073 6.82432 25.3073C7.15414 25.3073 7.46055 25.1125 7.59527 24.7999L12.0578 14.4466C12.1687 14.1897 12.1442 13.8944 11.9926 13.6593C11.8411 13.424 11.5821 13.2798 11.3024 13.2746L9.23844 13.2357V7.31235C9.23844 6.91233 8.95652 6.56786 8.56459 6.4889C8.17267 6.40995 7.77921 6.61838 7.62436 6.98691L3.36193 17.1366C3.25236 17.3975 3.28145 17.696 3.43958 17.9307C3.59573 18.1627 3.85687 18.3016 4.13616 18.3016ZM7.55875 11.4812V14.0598C7.55875 14.5175 7.92531 14.8908 8.38285 14.8996L10.0203 14.9304L7.63989 20.4526L7.62196 17.4259C7.62064 17.2024 7.5301 16.9885 7.37066 16.8319C7.21363 16.6775 7.00213 16.5911 6.78211 16.5911C6.77883 16.5911 6.77555 16.5911 6.77227 16.5911L5.40599 16.6071L7.55875 11.4812Z" fill="#FDCF48"/>
</svg>
