<svg width="21" height="12" viewBox="0 0 21 12" fill="none" xmlns="http://www.w3.org/2000/svg">
<path d="M17.6723 3.10778L14 4.5C13 3.5 13.2871 3.6521 12.1389 3.10778C10.9906 2.56347 9.73482 2.28402 8.46413 2.29008C6.45557 2.30765 4.51669 3.02857 2.98456 4.32748C1.45243 5.6264 0.423955 7.42118 0.0779327 9.39978C0.0663281 9.4462 -0.00716723 9.43846 0.000569113 9.38818C0.210251 7.31082 1.03821 5.34412 2.37743 3.74229C3.71664 2.14046 5.50554 0.977143 7.51288 0.402726C7.95871 0.275146 8.41077 0.177919 8.86603 0.110987C12.048 -0.356828 15.3538 0.878758 17.6723 3.10778Z" fill="white"/>
<path d="M20.7108 10.421C20.7099 10.4521 20.6968 10.4816 20.6744 10.5033C20.652 10.525 20.6221 10.5371 20.5909 10.537H17.098C17.0684 10.5363 17.0403 10.5243 17.0194 10.5034C16.9985 10.4825 16.9865 10.4544 16.9858 10.4248C16.943 9.48605 16.8439 8.87456 16.4999 8L19.9999 6.5C20.4999 8 20.5909 8.5 20.7108 10.421Z" fill="white"/>
<path d="M19.1929 4.0699L18.9866 4.22584L15.9902 6.49505L11.4301 9.95392L11.4263 9.95409C11.3154 10.3634 11.0481 10.7128 10.6819 10.9267C10.3078 11.1466 9.86165 11.2088 9.44166 11.0997C9.02167 10.9906 8.66223 10.7191 8.4424 10.345C8.22257 9.97085 8.16037 9.52473 8.26947 9.10474C8.37857 8.68475 8.65005 8.32531 9.02417 8.10548C9.39176 7.89262 9.82726 7.82962 10.2401 7.92958L10.2361 7.92588L15.4424 5.63573L18.9082 4.11305L19.1553 4.00569C19.1638 4.00135 19.1736 4.00042 19.1827 4.00308C19.1919 4.00575 19.1996 4.01181 19.2045 4.02003C19.2093 4.02824 19.2107 4.03799 19.2086 4.04726C19.2065 4.05653 19.2008 4.06463 19.1929 4.0699Z" fill="white"/>
</svg>
