<svg width="19" height="15" viewBox="0 0 19 15" fill="none" xmlns="http://www.w3.org/2000/svg">
<path d="M10.8067 0H7.33319C6.97794 0 6.68994 0.287996 6.68994 0.643248V14.3594C6.68994 14.7147 6.97794 15.0027 7.33319 15.0027H10.8067C11.162 15.0027 11.45 14.7147 11.45 14.3594V0.643248C11.45 0.287954 11.162 0 10.8067 0Z" fill="#FDCF48"/>
<path d="M17.5178 7.99768H14.0442C13.689 7.99768 13.401 8.28568 13.401 8.64093V14.3637C13.401 14.719 13.689 15.0069 14.0442 15.0069H17.5178C17.873 15.0069 18.161 14.719 18.161 14.3637V8.64093C18.161 8.28563 17.873 7.99768 17.5178 7.99768Z" fill="#FDCF48"/>
<path d="M4.11673 5.12451H0.643187C0.287935 5.12451 -6.10352e-05 5.41251 -6.10352e-05 5.76776V14.3551C-6.10352e-05 14.7104 0.287935 14.9984 0.643187 14.9984H4.11673C4.47198 14.9984 4.75998 14.7104 4.75998 14.3551V5.76776C4.75998 5.41251 4.47198 5.12451 4.11673 5.12451Z" fill="#FDCF48"/>
</svg>
