<svg width="36" height="36" viewBox="0 0 36 36" fill="none" xmlns="http://www.w3.org/2000/svg">
<path d="M18 36C27.9411 36 36 27.9411 36 18C36 8.05887 27.9411 0 18 0C8.05887 0 0 8.05887 0 18C0 27.9411 8.05887 36 18 36Z" fill="#039BE5"/>
<path d="M9.10397 17.865L24.531 11.92C25.247 11.661 25.872 12.095 25.64 13.177L23.011 25.548C22.816 26.425 22.295 26.639 21.566 26.225L17.566 23.277L15.637 25.136C15.5419 25.2593 15.4196 25.359 15.2796 25.4272C15.1396 25.4954 14.9857 25.5302 14.83 25.529L15.114 21.458L22.527 14.758C22.85 14.474 22.455 14.314 22.027 14.597L12.872 20.368L8.92297 19.136C8.06597 18.864 8.04697 18.279 9.10397 17.865Z" fill="white"/>
</svg>
