<svg width="34" height="34" viewBox="0 0 34 34" fill="none" xmlns="http://www.w3.org/2000/svg">
<mask id="mask0_1_355" style="mask-type:luminance" maskUnits="userSpaceOnUse" x="0" y="0" width="34" height="34">
<path d="M0 0.666683H33.3333V34H0V0.666683Z" fill="white"/>
</mask>
<g mask="url(#mask0_1_355)">
<path d="M14.7133 20.2629V15.3801C14.7133 14.3015 15.5878 13.427 16.6665 13.427C17.7451 13.427 18.6196 14.3015 18.6196 15.3801V20.2629" stroke="#FDCF48" stroke-width="1.31579" stroke-miterlimit="10"/>
<path d="M18.6196 17.3333C18.6196 16.2546 19.4941 15.3801 20.5727 15.3801C21.6514 15.3801 22.5258 16.2546 22.5258 17.3333V19.2864" stroke="#FDCF48" stroke-width="1.31579" stroke-miterlimit="10"/>
<path d="M22.5259 20.263V19.2865C22.5259 18.2078 23.4003 17.3333 24.479 17.3333C25.5576 17.3333 26.4321 18.2078 26.4321 19.2865V23.1927C26.4321 28.5861 22.0599 33.0234 16.6665 33.0234C11.2731 33.0234 6.90088 28.5861 6.90088 23.1927V17.3333C6.90088 16.2547 7.77536 15.3802 8.854 15.3802C9.93265 15.3802 10.8071 16.2547 10.8071 17.3333V24.1693" stroke="#FDCF48" stroke-width="1.31579" stroke-miterlimit="10"/>
<path d="M14.7133 15.3801V7.50253C14.7133 6.42388 13.8389 5.5494 12.7602 5.5494C11.6816 5.5494 10.8071 6.42388 10.8071 7.50253V19.2864" stroke="#FDCF48" stroke-width="1.31579" stroke-miterlimit="10"/>
<path d="M6.90085 7.50256C6.90085 4.2665 9.52415 1.64319 12.7602 1.64319C15.9963 1.64319 18.6196 4.2665 18.6196 7.50256" stroke="#FDCF48" stroke-width="1.31579" stroke-miterlimit="10"/>
</g>
</svg>
