<svg width="20" height="20" viewBox="0 0 20 20" fill="none" xmlns="http://www.w3.org/2000/svg">
<path d="M19.9322 8.52727C19.9352 8.52313 19.9382 8.51895 19.9409 8.51469C19.9435 8.51079 19.9459 8.50684 19.9483 8.50286C19.9512 8.49794 19.9542 8.49302 19.9569 8.48798C19.9583 8.48536 19.9595 8.48267 19.9608 8.48005C19.9675 8.46658 19.9733 8.45283 19.9781 8.43881C19.9783 8.43803 19.9787 8.43725 19.9789 8.43647C19.9809 8.43037 19.9826 8.4242 19.9842 8.41803C19.9851 8.41448 19.9862 8.41092 19.987 8.40737C19.9883 8.40178 19.9894 8.3962 19.9904 8.39061C19.9912 8.38624 19.9919 8.38183 19.9925 8.37741C19.9932 8.37222 19.9939 8.36703 19.9943 8.36183C19.9948 8.35683 19.995 8.35183 19.9953 8.3468C19.9955 8.34195 19.9957 8.33707 19.9957 8.33223C19.9957 8.32684 19.9955 8.32145 19.9952 8.31606C19.9949 8.31141 19.9948 8.30676 19.9944 8.30212C19.9939 8.29661 19.9931 8.29114 19.9923 8.28563C19.9917 8.28106 19.9912 8.27646 19.9903 8.27189C19.9903 8.27165 19.9903 8.27138 19.9902 8.27114C19.1187 3.556 14.8232 0 9.99784 0C5.17244 0 0.876941 3.556 0.00542864 8.27107C0.00538959 8.2713 0.00535053 8.27154 0.00531148 8.27177C0.00449133 8.27638 0.00398361 8.28103 0.00335873 8.28563C0.00257763 8.2911 0.00175747 8.29657 0.00128881 8.302C0.00085921 8.30665 0.000742045 8.31129 0.000507715 8.31594C0.00023433 8.32133 0 8.32672 0 8.33211C0 8.33699 0.000195275 8.34184 0.000429605 8.34668C0.000663935 8.35172 0.00093732 8.35672 0.00140598 8.36171C0.00187464 8.36691 0.00246046 8.3721 0.00316345 8.3773C0.00378833 8.38171 0.00449133 8.38612 0.00531148 8.3905C0.00632691 8.39612 0.00734234 8.40171 0.00867021 8.40729C0.00949036 8.41085 0.0105058 8.41436 0.0114431 8.41791C0.0130834 8.42412 0.0147237 8.43029 0.0167546 8.43643C0.0169889 8.43713 0.0173014 8.43779 0.0175357 8.4385C0.0223004 8.45263 0.0281977 8.46646 0.0349542 8.48001C0.0362821 8.48267 0.0374537 8.48536 0.0388207 8.48794C0.0415155 8.49298 0.0444836 8.4979 0.0474518 8.50282C0.0498342 8.5068 0.0522165 8.51079 0.0547942 8.51465C0.0576061 8.51891 0.0604962 8.52309 0.0635034 8.52723C0.0668622 8.53188 0.0704162 8.53641 0.0740092 8.5409C0.0758839 8.54324 0.0774851 8.5457 0.0794769 8.54797L9.7443 19.8791C9.74473 19.8796 9.74524 19.88 9.74571 19.8806C9.74739 19.8825 9.74922 19.8844 9.75098 19.8863C9.75281 19.8884 9.75457 19.8906 9.75645 19.8925C9.75754 19.8937 9.75879 19.8948 9.75992 19.8959C9.76109 19.8971 9.7623 19.8982 9.76348 19.8993C9.76566 19.9015 9.76765 19.9038 9.76988 19.9059C9.77094 19.9069 9.77211 19.9077 9.77316 19.9088C9.77492 19.9104 9.77668 19.9119 9.77847 19.9134C9.77957 19.9144 9.7805 19.9155 9.78164 19.9164C9.78363 19.9181 9.78578 19.9196 9.78785 19.9213C9.79074 19.9236 9.79355 19.926 9.79656 19.9283C9.79827 19.9296 9.80007 19.9309 9.80179 19.9321C9.80597 19.9352 9.81026 19.938 9.81452 19.9409C9.81796 19.9431 9.82136 19.9454 9.82491 19.9475C9.82522 19.9477 9.82553 19.948 9.82589 19.9482C9.82706 19.9489 9.82815 19.9497 9.82932 19.9504C9.83288 19.9525 9.83655 19.9543 9.84018 19.9562C9.84131 19.9569 9.84248 19.9575 9.84362 19.958L9.84373 19.9581C9.84655 19.9595 9.84928 19.961 9.85213 19.9625C9.85483 19.9638 9.85748 19.9651 9.86022 19.9664C9.86104 19.9667 9.86189 19.967 9.86271 19.9674C9.8635 19.9677 9.86432 19.968 9.86514 19.9684C9.86584 19.9687 9.86658 19.9689 9.86732 19.9692C9.87017 19.9705 9.87302 19.9716 9.87588 19.9728C9.87771 19.9735 9.87947 19.9743 9.88134 19.975C9.88435 19.9761 9.88736 19.9771 9.8904 19.9782C9.89079 19.9783 9.89115 19.9784 9.89154 19.9785C9.89392 19.9793 9.89634 19.98 9.89872 19.9807C9.9045 19.9825 9.91032 19.9843 9.91618 19.9858C9.91798 19.9863 9.91985 19.9866 9.92165 19.987C9.92216 19.9871 9.92266 19.9872 9.92317 19.9873C9.92626 19.988 9.9293 19.9887 9.93239 19.9893C9.93579 19.99 9.93915 19.9908 9.94258 19.9914C9.94582 19.9919 9.9491 19.9922 9.95238 19.9926C9.95438 19.9929 9.95633 19.9932 9.95828 19.9934C9.96066 19.9937 9.96305 19.994 9.96543 19.9943C9.96687 19.9944 9.96832 19.9947 9.96976 19.9948C9.97902 19.9956 9.98832 19.996 9.99769 19.996H9.99781C9.99788 19.996 9.99792 19.996 9.998 19.996C9.99808 19.996 9.99812 19.996 9.9982 19.996H9.99831C10.0077 19.996 10.017 19.9956 10.0263 19.9948C10.0276 19.9947 10.029 19.9944 10.0304 19.9943C10.0328 19.994 10.0353 19.9937 10.0377 19.9934C10.0397 19.9932 10.0417 19.9929 10.0437 19.9926C10.047 19.9921 10.0503 19.9919 10.0537 19.9913C10.0568 19.9907 10.0599 19.99 10.0631 19.9894C10.0664 19.9887 10.0697 19.988 10.0731 19.9872C10.0754 19.9867 10.0779 19.9862 10.0802 19.9856C10.081 19.9855 10.0817 19.9853 10.0823 19.9851C10.0826 19.9851 10.083 19.985 10.0833 19.985C10.0837 19.9848 10.0842 19.9846 10.0846 19.9845C10.0885 19.9835 10.0924 19.9821 10.0962 19.9809C10.099 19.98 10.1017 19.9793 10.1044 19.9784C10.105 19.9782 10.1055 19.978 10.1061 19.9778C10.1087 19.9769 10.1114 19.976 10.114 19.975C10.1167 19.974 10.1193 19.9728 10.1219 19.9718C10.1236 19.9711 10.1253 19.9704 10.1269 19.9697C10.1284 19.9691 10.1299 19.9685 10.1313 19.9679L10.1315 19.9679C10.133 19.9672 10.1345 19.9667 10.136 19.966C10.1384 19.9649 10.1408 19.9637 10.1432 19.9625C10.1463 19.961 10.1492 19.9594 10.1522 19.9578C10.1535 19.9571 10.1548 19.9565 10.1561 19.9558C10.1595 19.9539 10.1629 19.9523 10.1663 19.9503C10.1678 19.9494 10.1692 19.9484 10.1707 19.9475C10.1744 19.9452 10.178 19.9428 10.1816 19.9405C10.1857 19.9377 10.1899 19.935 10.194 19.932C10.1957 19.9307 10.1975 19.9295 10.1993 19.9281C10.2023 19.9259 10.2051 19.9234 10.208 19.921C10.2101 19.9194 10.2122 19.9179 10.2142 19.9163C10.2153 19.9153 10.2162 19.9142 10.2173 19.9132C10.2191 19.9117 10.2209 19.9101 10.2226 19.9086C10.2237 19.9076 10.2249 19.9067 10.2259 19.9057C10.2282 19.9036 10.2302 19.9013 10.2324 19.8991C10.2335 19.898 10.2347 19.897 10.2358 19.8958C10.237 19.8947 10.2383 19.8936 10.2394 19.8924C10.2413 19.8904 10.243 19.8882 10.2448 19.8862C10.2466 19.8842 10.2484 19.8824 10.2501 19.8804C10.2505 19.8799 10.2511 19.8795 10.2515 19.8789L19.9163 8.54777C19.9183 8.54547 19.9199 8.54301 19.9218 8.5407C19.9254 8.53645 19.9289 8.53192 19.9322 8.52727ZM19.2267 8.32926L10.695 18.3319L13.3018 8.48415C14.0161 7.59362 15.2239 6.99869 16.3299 6.99869C17.3723 6.99866 18.5032 7.52543 19.2267 8.32926ZM9.99784 18.3601L7.36347 8.40799C8.1268 7.47286 9.01249 6.99866 9.99784 6.99866C10.9832 6.99866 11.8689 7.47286 12.6322 8.40799L9.99784 18.3601ZM9.99784 0.666552C14.1187 0.666552 17.8263 3.44102 19.0554 7.2813C18.2602 6.69176 17.2654 6.33214 16.3299 6.33214C15.1405 6.33214 13.8524 6.91535 13.0026 7.81354C12.1388 6.83006 11.1296 6.33214 9.99781 6.33214C8.86599 6.33214 7.85689 6.83006 6.99303 7.81354C6.14319 6.91539 4.85512 6.33214 3.66566 6.33214C2.73018 6.33214 1.73537 6.69172 0.940171 7.2813C2.16935 3.44102 5.87696 0.666552 9.99784 0.666552ZM3.66574 6.99866C4.77182 6.99866 5.97963 7.59358 6.69391 8.48411L9.30067 18.3318L0.769032 8.32926C1.49253 7.52543 2.62344 6.99866 3.66574 6.99866Z" fill="#FDCF48"/>
</svg>
