<svg width="16" height="16" viewBox="0 0 16 16" fill="none" xmlns="http://www.w3.org/2000/svg">
<path d="M8 0C6.41775 0 4.87103 0.469192 3.55544 1.34824C2.23985 2.22729 1.21447 3.47672 0.608967 4.93853C0.00346627 6.40034 -0.15496 8.00887 0.153721 9.56072C0.462403 11.1126 1.22433 12.538 2.34315 13.6568C3.46197 14.7757 4.88743 15.5376 6.43928 15.8463C7.99113 16.155 9.59966 15.9965 11.0615 15.391C12.5233 14.7855 13.7727 13.7601 14.6518 12.4446C15.5308 11.129 16 9.58225 16 8C15.9975 5.87905 15.1538 3.84569 13.654 2.34595C12.1543 0.846211 10.121 0.00254057 8 0ZM12.4712 5.8944L7.36 10.9672C7.21557 11.1144 7.01909 11.199 6.81289 11.2028C6.60669 11.2065 6.40727 11.1291 6.2576 10.9872L3.5488 8.5216C3.39684 8.37836 3.30583 8.18213 3.29466 7.9736C3.28349 7.76508 3.35301 7.56025 3.4888 7.4016C3.63218 7.24804 3.83059 7.1576 4.04053 7.15011C4.25048 7.14261 4.45484 7.21866 4.6088 7.3616L6.7544 9.3264L11.328 4.752C11.4796 4.6004 11.6852 4.51523 11.8996 4.51523C12.114 4.51523 12.3196 4.6004 12.4712 4.752C12.6228 4.9036 12.708 5.10921 12.708 5.3236C12.708 5.53799 12.6228 5.7428 12.4712 5.8944Z" fill="#FDCF48"/>
</svg>
