<svg width="36" height="36" viewBox="0 0 36 36" fill="none" xmlns="http://www.w3.org/2000/svg">
<path d="M18 0C14.4399 0 10.9598 1.05568 7.99974 3.03355C5.03966 5.01141 2.73255 7.82263 1.37018 11.1117C0.00779917 14.4008 -0.348661 18.02 0.345873 21.5116C1.04041 25.0033 2.75474 28.2106 5.27209 30.7279C7.78943 33.2453 10.9967 34.9596 14.4884 35.6541C17.98 36.3487 21.5992 35.9922 24.8883 34.6298C28.1774 33.2674 30.9886 30.9603 32.9665 28.0003C34.9443 25.0402 36 21.5601 36 18C35.9997 13.2262 34.1032 8.64797 30.7276 5.27237C27.352 1.89678 22.7738 0.000269608 18 0Z" fill="black"/>
<path d="M19.9693 16.3683L27.6745 7.41147H25.8445L19.1539 15.1889L13.8103 7.41147H7.6463L15.7278 19.1722L7.6463 28.5652H9.47628L16.5421 20.3515L22.1856 28.5652H28.3496L19.9693 16.3652V16.3683ZM10.1351 8.786H12.9401L25.8516 27.2526H23.0436L10.1351 8.786Z" fill="white"/>
</svg>
